<svg width="100" height="100" viewBox="0 0 100 100" xmlns="http://www.w3.org/2000/svg" fill="#D0A84C"><path d="M50,5.22C25.28,5.22,5.22,25.28,5.22,50S25.28,94.78,50,94.78,94.78,74.72,94.78,50,74.72,5.22,50,5.22ZM50,88.13c-21,0-38.13-17.1-38.13-38.13S29,11.87,50,11.87,88.13,29,88.13,50,71,88.13,50,88.13Z"/><path d="M50,23.33a4.44,4.44,0,0,0-4.44,4.44V48.89a4.44,4.44,0,0,0,8.89,0V27.78A4.44,4.44,0,0,0,50,23.33Z"/><path d="M69.44,38.89a4.44,4.44,0,0,0-4.44-4.45H48.89a4.44,4.44,0,1,0,0,8.89h8.89v8.89a4.44,4.44,0,1,0,8.89,0V38.89Z"/><path d="M30.56,61.11a4.44,4.44,0,0,0,4.44,4.45H51.11a4.44,4.44,0,1,0,0-8.89H39.44V39.44a4.44,4.44,0,0,0-8.89,0V61.11Z"/></svg>
